<svg xmlns="http://www.w3.org/2000/svg"  viewBox="0 0 24 24" width="24px" height="24px"><path d="M 9 1 C 5.835 1 3.1579219 3.112 2.2949219 6 L 21.759766 6 C 20.896766 3.112 18.218688 1 15.054688 1 L 12.054688 1 L 12 1 L 9 1 z M 2 8 L 2 12.597656 C 1.399 13.155656 1.0546875 13.972766 1.0546875 14.884766 C 1.0546875 15.739766 1.4070469 16.561281 1.9980469 17.113281 L 3.0253906 18.140625 L 3.0253906 18.146484 L 10.21875 14.433594 C 11.32475 13.865594 12.675344 13.868594 13.777344 14.433594 L 21 18.167969 L 22.029297 17.136719 C 22.645297 16.561719 23 15.739766 23 14.884766 C 23 13.972766 22.655687 13.155656 22.054688 12.597656 L 22.054688 8 L 2 8 z M 5 10 L 11 10 L 7.3105469 12.773438 C 6.7645469 13.184437 5.9777188 12.938063 5.7617188 12.289062 L 5 10 z M 13 10 L 19 10 L 18.238281 12.289062 C 18.022281 12.937062 17.235453 13.183438 16.689453 12.773438 L 13 10 z M 12 16.003906 C 11.70225 16.003906 11.404766 16.073891 11.134766 16.212891 L 3.6523438 20.072266 L 3.859375 20.412109 C 5.084375 22.560109 6.5038594 23 8.2558594 23 L 9 23 C 10.304 23 11.415125 22.164 11.828125 21 L 12.171875 21 C 12.584875 22.164 13.697953 23 15.001953 23 L 15.744141 23 C 17.495141 23 18.913047 22.5605 20.123047 20.4375 L 20.341797 20.078125 L 12.861328 16.210938 C 12.594328 16.072938 12.29775 16.003906 12 16.003906 z"/></svg>